<?xml version="1.0" encoding="utf-8"?>
<!-- Generator: Adobe Illustrator 21.1.0, SVG Export Plug-In . SVG Version: 6.00 Build 0)  -->
<svg version="1.1" xmlns="http://www.w3.org/2000/svg" xmlns:xlink="http://www.w3.org/1999/xlink" x="0px" y="0px"
	 viewBox="0 0 744 723.1" style="enable-background:new 0 0 744 723.1;" xml:space="preserve">
<style type="text/css">
	.st0{display:none;}
	.st1{display:inline;fill:#312F38;}
	.st2{fill:#008DFF;}
	.st3{display:none;fill:#306263;}
	.st4{font-family:'BlueHighway-Bold';}
	.st5{font-size:502.3352px;}
	.st6{fill:#DDDDDD;}
	.st7{display:none;fill:#347F89;}
	.st8{display:none;fill:#31B0D5;}
	.st9{fill:#262626;}
</style>
<g id="fond_site" class="st0">
	<rect x="8.7" y="-225.3" class="st1" width="1332.1" height="1152.1"/>
</g>
<g id="queue">
	<path class="st2" d="M238.9,552.7c29.9,1.8,65.4,1.9,105-2.4c42.9-4.6,80.2-13,110.6-22c0,0,97.6-36.6,169.4,5.1
		c12,9.5,25.4,21.9,38.5,37.9c26.8,33,39.8,66.4,46.4,89c-6.5-7.9-17.6-18.9-34.2-26.9c-37.1-17.8-73.2-6.3-82.1-3.2
		c-12.7,3.6-25.8,7.7-39.4,12.3c-9.8,3.3-25.9,9.7-42.2,15.7c-2.1,0.8-7.1,2.6-13.8,4.9c-2.6,0.9-6.5,2.3-11.2,3.7
		c0,0-32.4,9.5-68.4,7.3C385.6,672.3,307.7,636.4,238.9,552.7z"/>
	<text id="_x33_47F89" transform="matrix(1.0144 0 0 1 689.1129 540.9739)" class="st3 st4 st5">CERBERUS</text>
</g>
<g id="corps_part_2">
	<path class="st6" d="M146,668.1c21.3,13.3,58.3,32.5,108,40.4c62.1,9.8,112.1-3.3,137.4-11.8c-30.3-10.8-82.5-33.8-132.3-82
		c-55.3-53.5-80.4-111.3-91.4-142.5c-4.6,11.1-9,23.1-12.7,35.9C136.7,570.3,139.4,627,146,668.1z"/>
</g>
<g id="corps_part_1">
	<path class="st6" d="M17.5,412.3c-4.4,1,87-62.2,181-25c0,0-104.6,59.5-80.3,262.1c0.1,0.2-5.4-1.7-13.9-6.4
		C70.2,624.4-12.1,561.9,17.5,412.3z"/>
</g>
<g id="Calque_9">
	
		<rect x="405.5" y="130.8" transform="matrix(1 -1.086441e-03 1.086441e-03 1 -0.1716 0.4841)" class="st2" width="80" height="54.9"/>
</g>
<g id="tete_3">
	<path class="st7" d="M580.7,183.2c-1.7-1-3.2-0.4-7.5-1.5c-3-0.8-5.6-1.5-5.6-1.5c-20.3-1.2-50-29.2-50-29.2
		c-27-33.9-48.1-43.2-56.7-44.3s-10.2-8.9-10.2-8.9c1.4-11,2.1-26.6-1.6-44.7c-2.2-11.1-5.6-20.5-8.9-28c-10.7,4.4-27,12.7-42.5,28
		c-16.2,15.9-23.7,31.8-32.3,50.5c-7.8,16.9-17.6,42.4-23.4,75.5l-0.4-1c-1.3-1.3-4.2-11.8-4.4-17.9c-0.2-6-4.3-8.6-4.3-8.6
		c-86.7,62.3-82.5,118.9-82.5,118.9c46.6-20.2,71.8-21.3,83.8-22.1c11.2-0.8,37,0.7,53.1,4.3c15.9,3.6,26.4,6.2,34.4,8.3
		c39.5,10.7,93,25.2,127.2,0.9c11.6-8.3,18.8-19.4,21.5-23.8c11.8-18.7,13.9-37,14.3-46.2C584.1,186.4,582.3,184.1,580.7,183.2z
		 M497,171.8c-0.3,0.9-1.5,4.5-4.7,8.1c-4.3,4.8-9.6,6.5-12,7.1c-4.7-1.2-11.1-3.3-17.6-7.8c-13.9-9.4-19.6-22.8-21.5-28.3
		c4.9-2,12.6-4.5,22.1-4.6c4.3,0,9.9-0.1,16.3,2.3c9.7,3.6,15.6,10.5,18.3,14.4C498.1,164.9,498.1,168.1,497,171.8z"/>
	<path class="st6" d="M561,170.7c-1.6-0.9-3-0.4-7.2-1.4c-2.8-0.7-5.4-1.4-5.4-1.4c-19.3-1.2-47.7-27.8-47.7-27.8
		c-25.7-32.3-45.8-41.2-54-42.2c-8.2-1-9.7-8.5-9.7-8.5c1.3-10.1,2.1-25-1.5-42.6c-3-14.8-8.1-26.6-12.5-34.8
		c-12,4.6-45.9,19.6-69.4,56.9c-29.4,46.7-20.9,94.6-18.7,105.2c-0.3-1.4-3.2-10.6-5.8-19c-2.3-7.5-4.5-14.3-4.5-14.3
		C242,200,246,254,246,254c44.4-19.3,68.5-20.3,79.8-21.1c10.7-0.7,35.2,0.6,50.6,4.1c15.1,3.4,25.2,5.9,32.8,7.9
		c37.7,10.2,88.6,24,121.2,0.9c11.1-7.9,17.9-18.5,20.5-22.7c11.2-17.8,13.3-35.3,13.7-44C564.2,173.7,562.5,171.6,561,170.7z
		 M481.2,159.8c-0.3,0.9-1.4,4.3-4.5,7.7c-4.1,4.6-9.1,6.2-11.4,6.7c-4.5-1.1-10.5-3.2-16.8-7.4c-13.3-9-18.6-21.7-20.5-27
		c4.7-1.9,12-4.3,21.1-4.3c4.1,0,9.4,0,15.5,2.2c9.3,3.4,14.9,10,17.5,13.7C482.2,153.2,482.3,156.3,481.2,159.8z"/>
</g>
<g id="tete_2">
	<path class="st8" d="M525.2,225.8c-2-1.1-3.7-0.5-9-1.8c-3.5-0.9-6.7-1.8-6.7-1.8c-24.1-1.4-59.4-34.7-59.4-34.7
		c-32-40.2-57.1-51.4-67.3-52.6c-10.2-1.2-12.1-10.6-12.1-10.6c1.7-13.1,2.5-31.6-1.9-53.1c-2.7-13.2-6.6-24.4-10.5-33.3
		c-12.8,5.3-32.1,15.1-50.5,33.2c-19.2,18.9-28.1,37.8-38.4,60c-9.3,20.1-21,50.4-27.8,89.7l-0.5-1.2c-1.5-1.5-5-14.1-5.3-21.2
		c-0.3-7.2-5.1-10.2-5.1-10.2c-103,74-98,141.3-98,141.3c55.3-24,85.3-25.3,99.5-26.3c13.3-0.9,43.9,0.8,63.1,5.1
		c18.9,4.3,31.3,7.3,40.8,9.9c46.9,12.7,110.4,29.9,151.1,1.1c13.8-9.8,22.3-23,25.6-28.2c14-22.2,16.5-43.9,17-54.9
		C529.3,229.6,527.2,226.9,525.2,225.8z M425.8,212.3c-0.3,1.1-1.8,5.4-5.6,9.6c-5.2,5.7-11.4,7.7-14.2,8.4
		c-5.6-1.4-13.1-4-20.9-9.2c-16.6-11.2-23.2-27.1-25.5-33.6c5.8-2.4,14.9-5.3,26.2-5.4c5.2-0.1,11.7-0.1,19.4,2.8
		c11.6,4.3,18.5,12.5,21.8,17.1C427.1,204,427.2,207.9,425.8,212.3z"/>
	<path class="st2" d="M511.4,211.1c-1.8-1.1-3.5-0.4-8.4-1.7c-3.3-0.8-6.2-1.7-6.2-1.7c-22.5-1.3-55.5-32.4-55.5-32.4
		c-29.9-37.6-53.4-48-63-49.2c-9.5-1.2-11.4-9.9-11.4-9.9c1.5-11.7,2.4-29.2-1.7-49.6c-3.5-17.3-9.5-31-14.6-40.6
		c-14,5.4-53.5,22.9-80.9,66.3c-34.3,54.5-24.3,110.2-21.8,122.5c-0.4-1.7-3.7-12.4-6.7-22.1c-2.7-8.7-5.2-16.6-5.2-16.6
		c-96.3,69.2-91.6,132.1-91.6,132.1c51.7-22.4,79.8-23.7,93-24.6c12.4-0.8,41.1,0.7,59,4.8c17.6,4,29.3,6.8,38.2,9.2
		c43.9,11.9,103.3,28,141.3,1c12.9-9.2,20.9-21.5,23.9-26.4c13.1-20.7,15.4-41.1,15.9-51.3C515.2,214.6,513.3,212.1,511.4,211.1z
		 M418.5,198.4c-0.3,1-1.7,5-5.3,9c-4.8,5.3-10.6,7.2-13.3,7.9c-5.2-1.3-12.3-3.7-19.6-8.6c-15.5-10.5-21.7-25.3-23.9-31.4
		c5.4-2.3,13.9-5,24.5-5.1c4.8,0,11-0.1,18.1,2.6c10.8,4,17.3,11.7,20.4,15.9C419.7,190.7,419.8,194.3,418.5,198.4z"/>
</g>
<g id="tete_1">
	<path class="st6" d="M460.3,265c-2.2-1.3-4.2-0.5-10-2c-4-1-7.5-2-7.5-2c-27-1.6-66.6-38.9-66.6-38.9c-35.9-45.1-64.1-57.6-75.5-59
		c-11.4-1.4-13.6-11.9-13.6-11.9c1.8-14.1,2.9-35-2.1-59.5c-4.2-20.8-11.4-37.2-17.5-48.7c-16.7,6.5-64.2,27.4-97,79.5
		c0,0-44.4,70.9-26.5,145.4c0,0.2,0.4,1.6,0.3,1.6c-0.3,0.1-5.3-11.1-8-25.5c-1.8-9.3-2.2-17.7-2-24.7
		c-34.8,24.4-55.3,50.1-67.3,68.7c-25,38.6-41.7,89.2-39.8,90.1c0.1,0,0.2,0,0.3-0.1c37-16.3,66.9-22.1,86.1-24.5
		c9-1.1,16.2-1.5,18-1.6c14.9-1,49.3,0.9,70.7,5.7c21.2,4.8,35.2,8.2,45.8,11.1C300.8,383,372,402.3,417.6,370
		c15.5-11,25-25.8,28.7-31.7c15.7-24.9,18.5-49.3,19.1-61.6C464.8,269.2,462.5,266.3,460.3,265z M348.7,249.8c-0.4,1.2-2,6-6.3,10.8
		c-5.8,6.4-12.8,8.6-16,9.4c-6.3-1.5-14.7-4.5-23.5-10.4c-18.6-12.6-26-30.4-28.7-37.7c6.5-2.7,16.7-5.9,29.4-6.1
		c5.8-0.1,13.2-0.1,21.7,3.1c13,4.8,20.8,14,24.4,19.1C350.2,240.6,350.3,244.9,348.7,249.8z"/>
	<path class="st9" d="M-43.1,121"/>
</g>
</svg>
