<?xml version="1.0" encoding="UTF-8" standalone="no"?>
<!-- Generator: Adobe Illustrator 21.1.0, SVG Export Plug-In . SVG Version: 6.00 Build 0)  -->

<svg
   xmlns:dc="http://purl.org/dc/elements/1.1/"
   xmlns:cc="http://creativecommons.org/ns#"
   xmlns:rdf="http://www.w3.org/1999/02/22-rdf-syntax-ns#"
   xmlns:svg="http://www.w3.org/2000/svg"
   xmlns="http://www.w3.org/2000/svg"
   xmlns:sodipodi="http://sodipodi.sourceforge.net/DTD/sodipodi-0.dtd"
   xmlns:inkscape="http://www.inkscape.org/namespaces/inkscape"
   version="1.1"
   x="0px"
   y="0px"
   viewBox="0 0 744 723.1"
   style="enable-background:new 0 0 744 723.1;"
   xml:space="preserve"
   id="svg3887"
   sodipodi:docname="Logo-cerberus_White.svg"
   inkscape:version="0.92.4 (5da689c313, 2019-01-14)"><metadata
   id="metadata3893"><rdf:RDF><cc:Work
       rdf:about=""><dc:format>image/svg+xml</dc:format><dc:type
         rdf:resource="http://purl.org/dc/dcmitype/StillImage" /><dc:title /></cc:Work></rdf:RDF></metadata><defs
   id="defs3891">
	
	

	
	

	
	
</defs><sodipodi:namedview
   pagecolor="#000075"
   bordercolor="#666666"
   borderopacity="1"
   objecttolerance="10"
   gridtolerance="10"
   guidetolerance="10"
   inkscape:pageopacity="0"
   inkscape:pageshadow="2"
   inkscape:window-width="1920"
   inkscape:window-height="1015"
   id="namedview3889"
   showgrid="false"
   inkscape:pagecheckerboard="false"
   inkscape:zoom="0.46156052"
   inkscape:cx="191.74987"
   inkscape:cy="324.13449"
   inkscape:window-x="0"
   inkscape:window-y="0"
   inkscape:window-maximized="1"
   inkscape:current-layer="svg3887" />
<style
   type="text/css"
   id="style3854">
	.st0{display:none;}
	.st1{display:inline;fill:#312F38;}
	.st2{fill:#008DFF;}
	.st3{display:none;fill:#306263;}
	.st4{font-family:'BlueHighway-Bold';}
	.st5{font-size:502.3352px;}
	.st6{fill:#262626;}
	.st7{display:none;fill:#347F89;}
	.st8{display:none;fill:#31B0D5;}
</style>
<g
   id="fond_site"
   class="st0">
	<rect
   x="8.7"
   y="-225.3"
   class="st1"
   width="1332.1"
   height="1152.1"
   id="rect3856" />
</g>
<g
   id="queue"
   style="fill:#ffffff">
	<path
   class="st2"
   d="M238.9,552.7c29.9,1.8,65.4,1.9,105-2.4c42.9-4.6,80.2-13,110.6-22c0,0,97.6-36.6,169.4,5.1   c12,9.5,25.4,21.9,38.5,37.9c26.8,33,39.8,66.4,46.4,89c-6.5-7.9-17.6-18.9-34.2-26.9c-37.1-17.8-73.2-6.3-82.1-3.2   c-12.7,3.6-25.8,7.7-39.4,12.3c-9.8,3.3-25.9,9.7-42.2,15.7c-2.1,0.8-7.1,2.6-13.8,4.9c-2.6,0.9-6.5,2.3-11.2,3.7   c0,0-32.4,9.5-68.4,7.3C385.6,672.3,307.7,636.4,238.9,552.7z"
   id="path3859"
   style="fill:#ffffff" />
	<text
   id="_x33_47F89"
   transform="matrix(1.0144 0 0 1 689.1129 540.9739)"
   class="st3 st4 st5"
   style="fill:#ffffff">CERBERUS</text>


</g>
<g
   id="corps_part_2"
   style="fill:#ffffff">
	<path
   class="st6"
   d="M146,668.1c21.3,13.3,58.3,32.5,108,40.4c62.1,9.8,112.1-3.3,137.4-11.8c-30.3-10.8-82.5-33.8-132.3-82   c-55.3-53.5-80.4-111.3-91.4-142.5c-4.6,11.1-9,23.1-12.7,35.9C136.7,570.3,139.4,627,146,668.1z"
   id="path3863"
   style="fill:#ffffff" />
</g>
<g
   id="corps_part_1"
   style="fill:#ffffff">
	<path
   class="st6"
   d="M17.5,412.3c-4.4,1,87-62.2,181-25c0,0-104.6,59.5-80.3,262.1c0.1,0.2-5.4-1.7-13.9-6.4   C70.2,624.4-12.1,561.9,17.5,412.3z"
   id="path3866"
   style="fill:#ffffff" />
</g>

<path
   inkscape:connector-curvature="0"
   style="display:none;fill:#ffffff"
   id="path3872"
   d="m 580.7,183.2 c -1.7,-1 -3.2,-0.4 -7.5,-1.5 -3,-0.8 -5.6,-1.5 -5.6,-1.5 -20.3,-1.2 -50,-29.2 -50,-29.2 -27,-33.9 -48.1,-43.2 -56.7,-44.3 -8.6,-1.1 -10.2,-8.9 -10.2,-8.9 1.4,-11 2.1,-26.6 -1.6,-44.7 -2.2,-11.1 -5.6,-20.5 -8.9,-28 -10.7,4.4 -27,12.7 -42.5,28 C 381.5,69 374,84.9 365.4,103.6 357.6,120.5 347.8,146 342,179.1 l -0.4,-1 c -1.3,-1.3 -4.2,-11.8 -4.4,-17.9 -0.2,-6 -4.3,-8.6 -4.3,-8.6 -86.7,62.3 -82.5,118.9 -82.5,118.9 46.6,-20.2 71.8,-21.3 83.8,-22.1 11.2,-0.8 37,0.7 53.1,4.3 15.9,3.6 26.4,6.2 34.4,8.3 39.5,10.7 93,25.2 127.2,0.9 11.6,-8.3 18.8,-19.4 21.5,-23.8 11.8,-18.7 13.9,-37 14.3,-46.2 -0.6,-5.5 -2.4,-7.8 -4,-8.7 z M 497,171.8 c -0.3,0.9 -1.5,4.5 -4.7,8.1 -4.3,4.8 -9.6,6.5 -12,7.1 -4.7,-1.2 -11.1,-3.3 -17.6,-7.8 -13.9,-9.4 -19.6,-22.8 -21.5,-28.3 4.9,-2 12.6,-4.5 22.1,-4.6 4.3,0 9.9,-0.1 16.3,2.3 9.7,3.6 15.6,10.5 18.3,14.4 0.2,1.9 0.2,5.1 -0.9,8.8 z"
   class="st7" /><path
   style="fill:#666666"
   d="M 423 12 C 411 16.6 377.09961 31.600391 353.59961 68.900391 C 324.19961 115.60039 332.70039 163.49961 334.90039 174.09961 C 334.60039 172.69961 331.69961 163.49961 329.09961 155.09961 C 326.79961 147.59961 324.59961 140.80078 324.59961 140.80078 C 241.99961 200.00078 246 254 246 254 C 260.52357 247.68683 272.83728 243.35662 283.2793 240.32617 C 278.19738 232.923 275.40626 226.10356 273.98828 222.19141 C 280.59228 219.55091 290.85221 216.21484 303.63867 216.21484 C 309.39962 216.21484 316.84682 216.21604 325.41797 219.27344 C 334.78899 222.66198 341.47286 228.33214 345.85938 233.16797 C 356.21393 233.77919 367.72777 235.02895 376.40039 237 C 391.50039 240.4 401.59922 242.90039 409.19922 244.90039 C 446.89922 255.10039 497.80039 268.90078 530.40039 245.80078 C 541.50039 237.90078 548.30039 227.29961 550.90039 223.09961 C 562.10039 205.29961 564.19961 187.79961 564.59961 179.09961 C 564.19961 173.69961 562.5 171.59922 561 170.69922 C 559.4 169.79922 558.00078 170.30078 553.80078 169.30078 C 551.00078 168.60078 548.40039 167.90039 548.40039 167.90039 C 529.10039 166.70039 500.69922 140.09961 500.69922 140.09961 C 474.99922 107.79961 454.89922 98.900391 446.69922 97.900391 C 438.49922 96.900391 437 89.400391 437 89.400391 C 438.3 79.300391 439.1 64.400781 435.5 46.800781 C 432.5 32.000781 427.4 20.2 423 12 z M 449.09961 135.5 C 453.19961 135.5 458.49961 135.49922 464.59961 137.69922 C 473.89961 141.09922 479.49961 147.70039 482.09961 151.40039 C 482.19961 153.20039 482.29922 156.30078 481.19922 159.80078 C 480.89922 160.70078 479.79922 164.1 476.69922 167.5 C 472.59922 172.1 467.60078 173.69922 465.30078 174.19922 C 460.80078 173.09922 454.8 171.00078 448.5 166.80078 C 435.2 157.80078 429.9 145.10078 428 139.80078 C 432.7 137.90078 439.99961 135.5 449.09961 135.5 z M 381.00781 169.4082 C 385.78922 169.4082 391.97019 169.40881 399.08398 172.01758 C 409.92958 176.0494 416.46007 183.87419 419.49219 188.26172 C 419.60878 190.39618 419.72617 194.07426 418.44336 198.22461 C 418.09348 199.29186 416.81052 203.32177 413.19531 207.35352 C 408.41391 212.80824 402.58264 214.70784 399.90039 215.30078 C 394.65254 213.99635 387.6537 211.5058 380.30664 206.52539 C 364.79627 195.85308 358.61616 180.79261 356.40039 174.50781 C 361.88151 172.25476 370.39544 169.4082 381.00781 169.4082 z "
   id="path3874" />
<path
   inkscape:connector-curvature="0"
   style="display:none;fill:#ffffff"
   id="path3877"
   d="m 525.2,225.8 c -2,-1.1 -3.7,-0.5 -9,-1.8 -3.5,-0.9 -6.7,-1.8 -6.7,-1.8 -24.1,-1.4 -59.4,-34.7 -59.4,-34.7 -32,-40.2 -57.1,-51.4 -67.3,-52.6 -10.2,-1.2 -12.1,-10.6 -12.1,-10.6 1.7,-13.1 2.5,-31.6 -1.9,-53.1 -2.7,-13.2 -6.6,-24.4 -10.5,-33.3 -12.8,5.3 -32.1,15.1 -50.5,33.2 -19.2,18.9 -28.1,37.8 -38.4,60 -9.3,20.1 -21,50.4 -27.8,89.7 l -0.5,-1.2 c -1.5,-1.5 -5,-14.1 -5.3,-21.2 -0.3,-7.2 -5.1,-10.2 -5.1,-10.2 -103,74 -98,141.3 -98,141.3 55.3,-24 85.3,-25.3 99.5,-26.3 13.3,-0.9 43.9,0.8 63.1,5.1 18.9,4.3 31.3,7.3 40.8,9.9 46.9,12.7 110.4,29.9 151.1,1.1 13.8,-9.8 22.3,-23 25.6,-28.2 14,-22.2 16.5,-43.9 17,-54.9 -0.5,-6.6 -2.6,-9.3 -4.6,-10.4 z m -99.4,-13.5 c -0.3,1.1 -1.8,5.4 -5.6,9.6 -5.2,5.7 -11.4,7.7 -14.2,8.4 -5.6,-1.4 -13.1,-4 -20.9,-9.2 -16.6,-11.2 -23.2,-27.1 -25.5,-33.6 5.8,-2.4 14.9,-5.3 26.2,-5.4 5.2,-0.1 11.7,-0.1 19.4,2.8 11.6,4.3 18.5,12.5 21.8,17.1 0.1,2 0.2,5.9 -1.2,10.3 z"
   class="st8" /><path
   style="fill:#b3b3b3"
   d="M 350.59961 26 C 336.59961 31.4 297.09922 48.900781 269.69922 92.300781 C 235.39922 146.80078 245.40039 202.50078 247.90039 214.80078 C 247.50039 213.10078 244.19922 202.39922 241.19922 192.69922 C 238.49922 183.99922 236 176.09961 236 176.09961 C 139.7 245.29961 144.40039 308.19922 144.40039 308.19922 C 196.10039 285.79922 224.20039 284.49961 237.40039 283.59961 C 249.80039 282.79961 278.50039 284.30039 296.40039 288.40039 C 314.00039 292.40039 325.69961 295.19961 334.59961 297.59961 C 378.49961 309.49961 437.90039 325.59961 475.90039 298.59961 C 488.80039 289.39961 496.80078 277.09922 499.80078 272.19922 C 512.90078 251.49922 515.19922 231.10039 515.69922 220.90039 C 515.19922 214.60039 513.30039 212.09961 511.40039 211.09961 C 509.60039 209.99961 507.9 210.70039 503 209.40039 C 499.7 208.60039 496.80078 207.69922 496.80078 207.69922 C 474.30078 206.39922 441.30078 175.30078 441.30078 175.30078 C 411.40078 137.70078 387.90078 127.29961 378.30078 126.09961 C 368.80078 124.89961 366.90039 116.19922 366.90039 116.19922 C 368.40039 104.49922 369.29922 86.999609 365.19922 66.599609 C 361.69922 49.299609 355.69961 35.6 350.59961 26 z M 380.90039 170.19922 C 385.70039 170.19922 391.9 170.10078 399 172.80078 C 409.8 176.80078 416.30039 184.49922 419.40039 188.69922 C 419.70039 190.69922 419.8 194.30039 418.5 198.40039 C 418.2 199.40039 416.79922 203.40039 413.19922 207.40039 C 408.39922 212.70039 402.60039 214.60078 399.90039 215.30078 C 394.70039 214.00078 387.60078 211.59922 380.30078 206.69922 C 364.80078 196.19922 358.60039 181.40078 356.40039 175.30078 C 361.80039 173.00078 370.30039 170.29922 380.90039 170.19922 z M 303.63867 216.21484 C 309.39962 216.21484 316.84682 216.21799 325.41797 219.27539 C 338.48545 224.00057 346.35452 233.17045 350.00781 238.3125 C 350.14829 240.81404 350.2878 245.12224 348.74219 249.98633 C 348.32063 251.23712 346.7738 255.9624 342.41797 260.6875 C 336.65703 267.08027 329.63214 269.30509 326.40039 270 C 320.07744 268.47125 311.64518 265.55174 302.79297 259.71484 C 284.10507 247.20719 276.65798 229.55897 273.98828 222.19336 C 280.59228 219.55286 290.85221 216.21484 303.63867 216.21484 z "
   id="path3879" />
<path
   style="fill:#ffffff"
   d="M 267.5 43 C 250.8 49.5 203.3 70.4 170.5 122.5 C 170.5 122.5 126.1 193.40039 144 267.90039 C 144 268.10039 144.40078 269.5 144.30078 269.5 C 144.00078 269.6 139.00078 258.4 136.30078 244 C 134.50078 234.7 134.10078 226.30078 134.30078 219.30078 C 99.500781 243.70078 79 269.4 67 288 C 42 326.6 25.299219 377.19961 27.199219 378.09961 C 27.299219 378.09961 27.4 378.1 27.5 378 C 64.5 361.7 94.399609 355.9 113.59961 353.5 C 122.59961 352.4 129.79961 352.00039 131.59961 351.90039 C 146.49961 350.90039 180.90078 352.79961 202.30078 357.59961 C 223.50078 362.39961 237.49961 365.79922 248.09961 368.69922 C 300.79961 382.99922 371.99961 402.3 417.59961 370 C 433.09961 359 442.60078 344.20078 446.30078 338.30078 C 462.00078 313.40078 464.80039 288.99922 465.40039 276.69922 C 464.80039 269.19922 462.50078 266.3 460.30078 265 C 458.10078 263.7 456.10078 264.5 450.30078 263 C 446.30078 262 442.80078 261 442.80078 261 C 415.80078 259.4 376.19922 222.09961 376.19922 222.09961 C 340.29922 176.99961 312.09922 164.49961 300.69922 163.09961 C 289.29922 161.69961 287.09961 151.19922 287.09961 151.19922 C 288.89961 137.09922 290 116.19922 285 91.699219 C 280.8 70.899219 273.6 54.5 267.5 43 z M 305.84961 215.77344 C 311.26777 215.7502 317.86328 216.10039 325.30078 218.90039 C 335.07934 222.51093 341.91259 228.60803 346.23242 233.58008 C 347.79031 235.332 349.04874 236.9626 350.00781 238.3125 C 350.14829 240.81404 350.2878 245.12224 348.74219 249.98633 C 348.32063 251.23712 346.77575 255.9624 342.41992 260.6875 C 336.65898 267.08027 329.63214 269.30509 326.40039 270 C 325.10464 269.69149 323.70081 269.30111 322.24219 268.85352 C 316.58425 267.13401 309.83094 264.35549 302.79297 259.71484 C 284.10507 247.20719 276.65798 229.55897 273.98828 222.19336 C 274.07669 222.15801 274.18177 222.11957 274.27148 222.08398 C 274.2516 222.03047 274.21861 221.95283 274.19922 221.90039 C 280.69922 219.20039 290.89961 216.00078 303.59961 215.80078 C 304.32461 215.78828 305.07559 215.77676 305.84961 215.77344 z "
   id="path3882" /><path
   inkscape:connector-curvature="0"
   style="fill:#ffffff"
   id="path3884"
   d="M -43.1,121"
   class="st6" />
<path
   style="display:none;fill:#ffffff"
   id="path3872-6"
   d="m 1212.574,300.26212 c -1.7,-1 -3.2,-0.4 -7.5,-1.5 -3,-0.8 -5.6,-1.5 -5.6,-1.5 -20.3,-1.2 -50,-29.2 -50,-29.2 -27,-33.9 -48.1,-43.2 -56.7,-44.3 -8.6,-1.1 -10.2,-8.9 -10.2,-8.9 1.4,-11 2.1,-26.6 -1.6,-44.7 -2.2,-11.1 -5.6,-20.5 -8.9,-28 -10.7,4.4 -27,12.7 -42.5,28 -16.2,15.9 -23.7,31.8 -32.29999,50.5 -7.8,16.9 -17.6,42.4 -23.4,75.5 l -0.4,-1 c -1.3,-1.3 -4.2,-11.8 -4.4,-17.9 -0.2,-6 -4.3,-8.6 -4.3,-8.6 -86.7,62.3 -82.5,118.9 -82.5,118.9 46.6,-20.2 71.8,-21.3 83.8,-22.1 11.2,-0.8 36.99999,0.7 53.09999,4.3 15.9,3.6 26.4,6.2 34.4,8.3 39.5,10.7 93,25.2 127.2,0.9 11.6,-8.3 18.8,-19.4 21.5,-23.8 11.8,-18.7 13.9,-37 14.3,-46.2 -0.6,-5.5 -2.4,-7.8 -4,-8.7 z m -83.7,-11.4 c -0.3,0.9 -1.5,4.5 -4.7,8.1 -4.3,4.8 -9.6,6.5 -12,7.1 -4.7,-1.2 -11.1,-3.3 -17.6,-7.8 -13.9,-9.4 -19.6,-22.8 -21.5,-28.3 4.9,-2 12.6,-4.5 22.1,-4.6 4.3,0 9.9,-0.1 16.3,2.3 9.7,3.6 15.6,10.5 18.3,14.4 0.2,1.9 0.2,5.1 -0.9,8.8 z"
   class="st7"
   inkscape:connector-curvature="0" /></svg>