<?xml version="1.0" encoding="UTF-8" standalone="no"?>
<!-- Generator: Adobe Illustrator 21.1.0, SVG Export Plug-In . SVG Version: 6.00 Build 0)  -->

<svg
   xmlns:dc="http://purl.org/dc/elements/1.1/"
   xmlns:cc="http://creativecommons.org/ns#"
   xmlns:rdf="http://www.w3.org/1999/02/22-rdf-syntax-ns#"
   xmlns:svg="http://www.w3.org/2000/svg"
   xmlns="http://www.w3.org/2000/svg"
   xmlns:sodipodi="http://sodipodi.sourceforge.net/DTD/sodipodi-0.dtd"
   xmlns:inkscape="http://www.inkscape.org/namespaces/inkscape"
   version="1.1"
   x="0px"
   y="0px"
   viewBox="0 0 744 723.1"
   style="enable-background:new 0 0 744 723.1;"
   xml:space="preserve"
   id="svg35"
   sodipodi:docname="Logo-cerberusWithText.svg"
   inkscape:version="0.92.4 (5da689c313, 2019-01-14)"><metadata
   id="metadata41"><rdf:RDF><cc:Work
       rdf:about=""><dc:format>image/svg+xml</dc:format><dc:type
         rdf:resource="http://purl.org/dc/dcmitype/StillImage" /><dc:title /></cc:Work></rdf:RDF></metadata><defs
   id="defs39" /><sodipodi:namedview
   pagecolor="#ffffff"
   bordercolor="#666666"
   borderopacity="1"
   objecttolerance="10"
   gridtolerance="10"
   guidetolerance="10"
   inkscape:pageopacity="0"
   inkscape:pageshadow="2"
   inkscape:window-width="1920"
   inkscape:window-height="1015"
   id="namedview37"
   showgrid="false"
   inkscape:zoom="0.92312104"
   inkscape:cx="411.264"
   inkscape:cy="323.39077"
   inkscape:window-x="0"
   inkscape:window-y="0"
   inkscape:window-maximized="1"
   inkscape:current-layer="svg35" />
<style
   type="text/css"
   id="style2">
	.st0{display:none;}
	.st1{display:inline;fill:#312F38;}
	.st2{fill:#008DFF;}
	.st3{display:none;fill:#306263;}
	.st4{font-family:'BlueHighway-Bold';}
	.st5{font-size:502.3352px;}
	.st6{fill:#262626;}
	.st7{display:none;fill:#347F89;}
	.st8{display:none;fill:#31B0D5;}
</style>
<g
   id="fond_site"
   class="st0">
	<rect
   x="8.7"
   y="-225.3"
   class="st1"
   width="1332.1"
   height="1152.1"
   id="rect4" />
</g>











<g
   id="g896"
   transform="matrix(1.2159359,0,0,1.2159359,-73.707888,-49.740285)"
   inkscape:export-xdpi="66"
   inkscape:export-ydpi="66"><g
     inkscape:export-ydpi="66"
     inkscape:export-xdpi="66"
     transform="matrix(0.38700873,0,0,0.38700873,241.83681,70.186226)"
     id="queue">
	<path
   id="path7"
   d="m 238.9,552.7 c 29.9,1.8 65.4,1.9 105,-2.4 42.9,-4.6 80.2,-13 110.6,-22 0,0 97.6,-36.6 169.4,5.1 12,9.5 25.4,21.9 38.5,37.9 26.8,33 39.8,66.4 46.4,89 -6.5,-7.9 -17.6,-18.9 -34.2,-26.9 -37.1,-17.8 -73.2,-6.3 -82.1,-3.2 -12.7,3.6 -25.8,7.7 -39.4,12.3 -9.8,3.3 -25.9,9.7 -42.2,15.7 -2.1,0.8 -7.1,2.6 -13.8,4.9 -2.6,0.9 -6.5,2.3 -11.2,3.7 0,0 -32.4,9.5 -68.4,7.3 -31.9,-1.8 -109.8,-37.7 -178.6,-121.4 z"
   class="st2"
   inkscape:connector-curvature="0"
   style="fill:#008dff" />
	<text
   class="st3 st4 st5"
   transform="matrix(1.0144,0,0,1,689.1129,540.9739)"
   id="_x33_47F89"
   style="font-size:502.33520508px;font-family:BlueHighway-Bold;display:none;fill:#306263">CERBERUS</text>




</g><g
     inkscape:export-ydpi="66"
     inkscape:export-xdpi="66"
     transform="matrix(0.38700873,0,0,0.38700873,241.83681,70.186226)"
     id="corps_part_2">
	<path
   id="path11"
   d="m 146,668.1 c 21.3,13.3 58.3,32.5 108,40.4 62.1,9.8 112.1,-3.3 137.4,-11.8 -30.3,-10.8 -82.5,-33.8 -132.3,-82 -55.3,-53.5 -80.4,-111.3 -91.4,-142.5 -4.6,11.1 -9,23.1 -12.7,35.9 -18.3,62.2 -15.6,118.9 -9,160 z"
   class="st6"
   inkscape:connector-curvature="0"
   style="fill:#262626" />
</g><g
     inkscape:export-ydpi="66"
     inkscape:export-xdpi="66"
     style="fill:#262626;fill-opacity:1"
     transform="matrix(0.38700873,0,0,0.38700873,241.83681,70.186226)"
     id="corps_part_1">
	<path
   id="path14"
   d="m 17.5,412.3 c -4.4,1 87,-62.2 181,-25 0,0 -104.6,59.5 -80.3,262.1 0.1,0.2 -5.4,-1.7 -13.9,-6.4 C 70.2,624.4 -12.1,561.9 17.5,412.3 Z"
   class="st6"
   inkscape:connector-curvature="0"
   style="fill:#262626;fill-opacity:1" />
</g><g
     inkscape:export-ydpi="66"
     inkscape:export-xdpi="66"
     transform="matrix(0.38700873,0,0,0.38700873,241.83681,70.186226)"
     id="Calque_9">
	
		<rect
   id="rect17"
   height="54.900002"
   width="80"
   class="st2"
   transform="matrix(1,-0.00108644,0.00108644,1,-0.1716,0.4841)"
   y="130.8"
   x="405.5"
   style="fill:#008dff" />
</g><g
     inkscape:export-ydpi="66"
     inkscape:export-xdpi="66"
     transform="matrix(0.38700873,0,0,0.38700873,241.83681,70.186226)"
     id="tete_3">
	<path
   id="path20"
   d="m 580.7,183.2 c -1.7,-1 -3.2,-0.4 -7.5,-1.5 -3,-0.8 -5.6,-1.5 -5.6,-1.5 -20.3,-1.2 -50,-29.2 -50,-29.2 -27,-33.9 -48.1,-43.2 -56.7,-44.3 -8.6,-1.1 -10.2,-8.9 -10.2,-8.9 1.4,-11 2.1,-26.6 -1.6,-44.7 -2.2,-11.1 -5.6,-20.5 -8.9,-28 -10.7,4.4 -27,12.7 -42.5,28 C 381.5,69 374,84.9 365.4,103.6 357.6,120.5 347.8,146 342,179.1 l -0.4,-1 c -1.3,-1.3 -4.2,-11.8 -4.4,-17.9 -0.2,-6 -4.3,-8.6 -4.3,-8.6 -86.7,62.3 -82.5,118.9 -82.5,118.9 46.6,-20.2 71.8,-21.3 83.8,-22.1 11.2,-0.8 37,0.7 53.1,4.3 15.9,3.6 26.4,6.2 34.4,8.3 39.5,10.7 93,25.2 127.2,0.9 11.6,-8.3 18.8,-19.4 21.5,-23.8 11.8,-18.7 13.9,-37 14.3,-46.2 -0.6,-5.5 -2.4,-7.8 -4,-8.7 z M 497,171.8 c -0.3,0.9 -1.5,4.5 -4.7,8.1 -4.3,4.8 -9.6,6.5 -12,7.1 -4.7,-1.2 -11.1,-3.3 -17.6,-7.8 -13.9,-9.4 -19.6,-22.8 -21.5,-28.3 4.9,-2 12.6,-4.5 22.1,-4.6 4.3,0 9.9,-0.1 16.3,2.3 9.7,3.6 15.6,10.5 18.3,14.4 0.2,1.9 0.2,5.1 -0.9,8.8 z"
   class="st7"
   inkscape:connector-curvature="0"
   style="display:none;fill:#347f89" />
	<path
   id="path22"
   d="m 561,170.7 c -1.6,-0.9 -3,-0.4 -7.2,-1.4 -2.8,-0.7 -5.4,-1.4 -5.4,-1.4 -19.3,-1.2 -47.7,-27.8 -47.7,-27.8 -25.7,-32.3 -45.8,-41.2 -54,-42.2 -8.2,-1 -9.7,-8.5 -9.7,-8.5 1.3,-10.1 2.1,-25 -1.5,-42.6 C 432.5,32 427.4,20.2 423,12 c -12,4.6 -45.9,19.6 -69.4,56.9 -29.4,46.7 -20.9,94.6 -18.7,105.2 -0.3,-1.4 -3.2,-10.6 -5.8,-19 -2.3,-7.5 -4.5,-14.3 -4.5,-14.3 C 242,200 246,254 246,254 c 44.4,-19.3 68.5,-20.3 79.8,-21.1 10.7,-0.7 35.2,0.6 50.6,4.1 15.1,3.4 25.2,5.9 32.8,7.9 37.7,10.2 88.6,24 121.2,0.9 11.1,-7.9 17.9,-18.5 20.5,-22.7 11.2,-17.8 13.3,-35.3 13.7,-44 -0.4,-5.4 -2.1,-7.5 -3.6,-8.4 z m -79.8,-10.9 c -0.3,0.9 -1.4,4.3 -4.5,7.7 -4.1,4.6 -9.1,6.2 -11.4,6.7 -4.5,-1.1 -10.5,-3.2 -16.8,-7.4 -13.3,-9 -18.6,-21.7 -20.5,-27 4.7,-1.9 12,-4.3 21.1,-4.3 4.1,0 9.4,0 15.5,2.2 9.3,3.4 14.9,10 17.5,13.7 0.1,1.8 0.2,4.9 -0.9,8.4 z"
   class="st6"
   inkscape:connector-curvature="0"
   style="fill:#262626" />
</g><g
     inkscape:export-ydpi="66"
     inkscape:export-xdpi="66"
     transform="matrix(0.38700873,0,0,0.38700873,241.83681,70.186226)"
     id="tete_2">
	<path
   id="path25"
   d="m 525.2,225.8 c -2,-1.1 -3.7,-0.5 -9,-1.8 -3.5,-0.9 -6.7,-1.8 -6.7,-1.8 -24.1,-1.4 -59.4,-34.7 -59.4,-34.7 -32,-40.2 -57.1,-51.4 -67.3,-52.6 -10.2,-1.2 -12.1,-10.6 -12.1,-10.6 1.7,-13.1 2.5,-31.6 -1.9,-53.1 -2.7,-13.2 -6.6,-24.4 -10.5,-33.3 -12.8,5.3 -32.1,15.1 -50.5,33.2 -19.2,18.9 -28.1,37.8 -38.4,60 -9.3,20.1 -21,50.4 -27.8,89.7 l -0.5,-1.2 c -1.5,-1.5 -5,-14.1 -5.3,-21.2 -0.3,-7.2 -5.1,-10.2 -5.1,-10.2 -103,74 -98,141.3 -98,141.3 55.3,-24 85.3,-25.3 99.5,-26.3 13.3,-0.9 43.9,0.8 63.1,5.1 18.9,4.3 31.3,7.3 40.8,9.9 46.9,12.7 110.4,29.9 151.1,1.1 13.8,-9.8 22.3,-23 25.6,-28.2 14,-22.2 16.5,-43.9 17,-54.9 -0.5,-6.6 -2.6,-9.3 -4.6,-10.4 z m -99.4,-13.5 c -0.3,1.1 -1.8,5.4 -5.6,9.6 -5.2,5.7 -11.4,7.7 -14.2,8.4 -5.6,-1.4 -13.1,-4 -20.9,-9.2 -16.6,-11.2 -23.2,-27.1 -25.5,-33.6 5.8,-2.4 14.9,-5.3 26.2,-5.4 5.2,-0.1 11.7,-0.1 19.4,2.8 11.6,4.3 18.5,12.5 21.8,17.1 0.1,2 0.2,5.9 -1.2,10.3 z"
   class="st8"
   inkscape:connector-curvature="0"
   style="display:none;fill:#31b0d5" />
	<path
   id="path27"
   d="m 511.4,211.1 c -1.8,-1.1 -3.5,-0.4 -8.4,-1.7 -3.3,-0.8 -6.2,-1.7 -6.2,-1.7 -22.5,-1.3 -55.5,-32.4 -55.5,-32.4 -29.9,-37.6 -53.4,-48 -63,-49.2 -9.5,-1.2 -11.4,-9.9 -11.4,-9.9 1.5,-11.7 2.4,-29.2 -1.7,-49.6 -3.5,-17.3 -9.5,-31 -14.6,-40.6 -14,5.4 -53.5,22.9 -80.9,66.3 -34.3,54.5 -24.3,110.2 -21.8,122.5 -0.4,-1.7 -3.7,-12.4 -6.7,-22.1 -2.7,-8.7 -5.2,-16.6 -5.2,-16.6 -96.3,69.2 -91.6,132.1 -91.6,132.1 51.7,-22.4 79.8,-23.7 93,-24.6 12.4,-0.8 41.1,0.7 59,4.8 17.6,4 29.3,6.8 38.2,9.2 43.9,11.9 103.3,28 141.3,1 12.9,-9.2 20.9,-21.5 23.9,-26.4 13.1,-20.7 15.4,-41.1 15.9,-51.3 -0.5,-6.3 -2.4,-8.8 -4.3,-9.8 z m -92.9,-12.7 c -0.3,1 -1.7,5 -5.3,9 -4.8,5.3 -10.6,7.2 -13.3,7.9 -5.2,-1.3 -12.3,-3.7 -19.6,-8.6 -15.5,-10.5 -21.7,-25.3 -23.9,-31.4 5.4,-2.3 13.9,-5 24.5,-5.1 4.8,0 11,-0.1 18.1,2.6 10.8,4 17.3,11.7 20.4,15.9 0.3,2 0.4,5.6 -0.9,9.7 z"
   class="st2"
   inkscape:connector-curvature="0"
   style="fill:#008dff" />
</g><g
     inkscape:export-ydpi="66"
     inkscape:export-xdpi="66"
     style="fill:#262626;fill-opacity:1"
     transform="matrix(0.38700873,0,0,0.38700873,241.83681,70.186226)"
     id="tete_1">
	<path
   id="path30"
   d="m 460.3,265 c -2.2,-1.3 -4.2,-0.5 -10,-2 -4,-1 -7.5,-2 -7.5,-2 -27,-1.6 -66.6,-38.9 -66.6,-38.9 -35.9,-45.1 -64.1,-57.6 -75.5,-59 -11.4,-1.4 -13.6,-11.9 -13.6,-11.9 1.8,-14.1 2.9,-35 -2.1,-59.5 -4.2,-20.8 -11.4,-37.2 -17.5,-48.7 -16.7,6.5 -64.2,27.4 -97,79.5 0,0 -44.4,70.9 -26.5,145.4 0,0.2 0.4,1.6 0.3,1.6 -0.3,0.1 -5.3,-11.1 -8,-25.5 -1.8,-9.3 -2.2,-17.7 -2,-24.7 C 99.5,243.7 79,269.4 67,288 c -25,38.6 -41.7,89.2 -39.8,90.1 0.1,0 0.2,0 0.3,-0.1 37,-16.3 66.9,-22.1 86.1,-24.5 9,-1.1 16.2,-1.5 18,-1.6 14.9,-1 49.3,0.9 70.7,5.7 21.2,4.8 35.2,8.2 45.8,11.1 52.7,14.3 123.9,33.6 169.5,1.3 15.5,-11 25,-25.8 28.7,-31.7 15.7,-24.9 18.5,-49.3 19.1,-61.6 -0.6,-7.5 -2.9,-10.4 -5.1,-11.7 z M 348.7,249.8 c -0.4,1.2 -2,6 -6.3,10.8 -5.8,6.4 -12.8,8.6 -16,9.4 -6.3,-1.5 -14.7,-4.5 -23.5,-10.4 -18.6,-12.6 -26,-30.4 -28.7,-37.7 6.5,-2.7 16.7,-5.9 29.4,-6.1 5.8,-0.1 13.2,-0.1 21.7,3.1 13,4.8 20.8,14 24.4,19.1 0.5,2.6 0.6,6.9 -1,11.8 z"
   class="st6"
   inkscape:connector-curvature="0"
   style="fill:#262626;fill-opacity:1" />
	<path
   id="path32"
   d="M -43.1,121"
   class="st6"
   inkscape:connector-curvature="0"
   style="fill:#262626;fill-opacity:1" />
</g><path
     inkscape:export-ydpi="66"
     inkscape:export-xdpi="66"
     inkscape:connector-curvature="0"
     id="path933"
     d="m 343.34743,344.53878 c -13.1501,-1.79496 -24.83204,-5.53148 -37.37975,-11.95607 l -7.49348,-3.83676 -0.80704,-6.92136 c -0.44386,-3.80675 -0.78524,-11.8572 -0.75861,-17.8899 0.0684,-15.48665 1.78632,-26.2981 6.51009,-40.96961 3.18873,-9.9038 3.04178,-9.77056 5.0892,-4.61433 14.03681,35.35031 42.41735,64.24676 77.39406,78.80098 3.85389,1.60365 6.83912,2.92333 6.63385,2.93262 -0.20527,0.009 -3.5403,0.80925 -7.41118,1.7777 -13.74035,3.43768 -29.02687,4.41711 -41.77714,2.67673 z"
     style="fill:#262626;fill-opacity:1;stroke-width:0.59289408" /><path
     inkscape:export-ydpi="66"
     inkscape:export-xdpi="66"
     inkscape:connector-curvature="0"
     id="path935"
     d="m 283.13261,319.1178 c -18.9335,-10.11601 -31.60784,-28.35348 -35.47999,-51.0532 -2.08884,-12.2454 -0.66948,-36.55801 2.2772,-39.00686 2.29579,-1.90793 14.19112,-7.38441 20.11753,-9.26189 15.19465,-4.81366 32.09302,-5.10282 44.84759,-0.76741 l 3.13877,1.0669 -3.39341,2.618 c -4.12674,3.18375 -8.90552,8.71846 -13.18175,15.26688 -12.1096,18.54409 -17.46182,45.49554 -14.92648,75.16327 0.35227,4.12208 0.5469,7.58827 0.43253,7.70265 -0.11438,0.11437 -1.83877,-0.66338 -3.83199,-1.72834 z"
     style="fill:#262626;fill-opacity:1;stroke-width:0.59289408" /><path
     inkscape:export-ydpi="66"
     inkscape:export-xdpi="66"
     inkscape:connector-curvature="0"
     id="path937"
     d="m 364.7465,218.78099 c -3.09787,-0.46552 -14.24116,-2.99489 -24.76286,-5.62084 -23.18208,-5.78563 -26.84075,-6.42924 -38.97325,-6.85595 -14.6078,-0.51377 -28.27603,1.88389 -42.44321,7.44531 l -5.98419,2.34914 0.39692,-1.5866 c 0.92428,-3.69463 4.82334,-13.36504 8.13777,-20.18327 6.78872,-13.96528 16.24222,-25.98134 27.44193,-34.88062 l 4.74316,-3.7689 0.37177,4.01799 c 0.42243,4.56555 1.79649,10.34113 3.16096,13.28649 l 0.9249,1.99649 -0.3147,-2.06496 c -0.17308,-1.13572 -0.59493,-4.57812 -0.93744,-7.64977 -1.69177,-15.17193 4.25324,-37.2854 13.54601,-50.38671 7.50326,-10.57839 17.35239,-19.023107 29.04112,-24.900083 2.68042,-1.347694 5.2396,-2.450352 5.68705,-2.450352 0.44746,0 1.517,1.667515 2.37676,3.705588 4.53724,10.755587 5.93061,17.732977 5.98531,29.971807 0.0387,8.66107 0.10304,9.13724 1.41896,10.50533 0.75812,0.78817 2.35893,1.60601 3.55736,1.81742 3.2553,0.57425 8.80945,3.40294 13.14751,6.69593 3.43358,2.60642 7.36568,6.47299 15.99292,15.72639 3.62524,3.88835 11.83635,9.95722 16.88738,12.48154 2.34325,1.17106 6.64722,2.61711 9.80807,3.29531 7.25732,1.55714 7.9783,2.299 7.52543,7.7433 -0.50285,6.04512 -1.97404,10.9683 -5.30205,17.74279 -2.59605,5.28453 -3.83017,7.00776 -8.16586,11.40215 -5.84435,5.92347 -10.64662,8.56902 -18.4894,10.18576 -5.63946,1.16254 -16.9673,1.15308 -24.77833,-0.0207 z m 6.89783,-45.23473 c 2.5205,-1.53693 4.7109,-4.56226 5.52889,-7.63641 0.5995,-2.253 0.53602,-2.77849 -0.54745,-4.53158 -2.48157,-4.01526 -8.22969,-7.20644 -14.08254,-7.81819 -3.60871,-0.37718 -10.46829,0.51875 -13.38909,1.74875 l -1.65935,0.69879 1.91753,3.85381 c 2.53949,5.10383 7.95736,10.50728 12.96261,12.92812 4.46172,2.15796 6.67508,2.33865 9.2694,0.75671 z"
     style="fill:#262626;fill-opacity:1;stroke-width:0.59289408" /><path
     inkscape:export-ydpi="66"
     inkscape:export-xdpi="66"
     inkscape:connector-curvature="0"
     id="path939"
     d="m 439.71002,166.4898 c 1.3519,-3.8317 2.23992,-10.95974 1.58122,-12.69226 -0.7508,-1.97474 -0.9103,-2.05734 -6.0672,-3.14213 -9.07707,-1.90943 -16.50414,-6.80102 -26.52725,-17.4713 -7.39062,-7.86782 -13.63548,-12.48319 -18.94457,-14.0013 -5.44163,-1.55601 -5.43863,-1.55005 -5.45051,-10.84683 -0.006,-4.7621 -0.36423,-9.731046 -0.87525,-12.143123 l -0.86497,-4.082722 1.89478,-2.392353 c 2.76371,-3.489461 10.55342,-9.438214 16.04825,-12.255532 l 4.77852,-2.450048 0.76788,1.366701 c 0.42233,0.751685 1.61076,3.901323 2.64096,6.999194 1.66167,4.996741 1.90493,6.602853 2.15517,14.229458 0.15515,4.728325 0.54044,8.918035 0.8562,9.310445 0.31576,0.39242 1.98509,1.12367 3.70963,1.62501 4.64147,1.34931 9.69508,5.02939 15.86973,11.55644 5.59875,5.9183 11.73643,10.96982 15.92451,13.10641 2.03658,1.03899 5.05591,1.93511 10.72474,3.18305 2.16294,0.47615 2.54451,2.65724 1.41949,8.11394 -2.333,11.31585 -10.20206,21.14506 -19.14533,23.91435 -1.30006,0.40257 -1.30765,0.37306 -0.496,-1.9274 z M 424.013,137.04686 c 2.28711,-1.18271 4.0601,-3.54939 4.52818,-6.04444 0.33608,-1.79146 0.12661,-2.3314 -1.61488,-4.16251 -2.84674,-2.99324 -6.02507,-4.30226 -10.48369,-4.31778 -4.33895,-0.0151 -9.01021,1.01453 -9.00217,1.98427 0.0116,1.39397 3.54718,6.76922 5.69008,8.65071 1.99263,1.74956 7.47553,4.74635 8.71148,4.76145 0.26076,0.003 1.23772,-0.38908 2.171,-0.8717 z"
     style="fill:#262626;fill-opacity:1;stroke-width:0.59289408" /></g><text
   xml:space="preserve"
   style="font-style:normal;font-variant:normal;font-weight:bold;font-stretch:normal;font-size:192px;line-height:1.25;font-family:sans-serif;-inkscape-font-specification:'sans-serif, Bold';font-variant-ligatures:normal;font-variant-caps:normal;font-variant-numeric:normal;font-feature-settings:normal;text-align:start;letter-spacing:0px;word-spacing:0px;writing-mode:lr-tb;text-anchor:start;fill:#262626;fill-opacity:1;stroke:none"
   x="14.371995"
   y="510.54123"
   id="text29-6"
   inkscape:export-xdpi="66"
   inkscape:export-ydpi="66"><tspan
     sodipodi:role="line"
     x="14.371995"
     y="510.54123"
     style="font-style:normal;font-variant:normal;font-weight:bold;font-stretch:normal;font-size:160px;font-family:sans-serif;-inkscape-font-specification:'sans-serif, Bold';font-variant-ligatures:normal;font-variant-caps:normal;font-variant-numeric:normal;font-feature-settings:normal;text-align:start;writing-mode:lr-tb;text-anchor:start;fill:#262626;fill-opacity:1"
     id="tspan26-0">Cerberus</tspan></text>
<text
   xml:space="preserve"
   style="font-style:normal;font-variant:normal;font-weight:bold;font-stretch:normal;font-size:192px;line-height:1.25;font-family:sans-serif;-inkscape-font-specification:'sans-serif, Bold';font-variant-ligatures:normal;font-variant-caps:normal;font-variant-numeric:normal;font-feature-settings:normal;text-align:start;letter-spacing:0px;word-spacing:0px;writing-mode:lr-tb;text-anchor:start;fill:#262626;fill-opacity:1;stroke:none"
   x="91.763245"
   y="667.87549"
   id="text29-0-4"
   inkscape:export-xdpi="66"
   inkscape:export-ydpi="66"><tspan
     sodipodi:role="line"
     x="91.763245"
     y="667.87549"
     style="font-style:normal;font-variant:normal;font-weight:bold;font-stretch:normal;font-size:160px;font-family:sans-serif;-inkscape-font-specification:'sans-serif, Bold';font-variant-ligatures:normal;font-variant-caps:normal;font-variant-numeric:normal;font-feature-settings:normal;text-align:start;writing-mode:lr-tb;text-anchor:start;fill:#262626;fill-opacity:1"
     id="tspan26-8-8">Testing</tspan></text>
</svg>