<?xml version="1.0" encoding="UTF-8" standalone="no"?>
<!-- Generator: Adobe Illustrator 21.1.0, SVG Export Plug-In . SVG Version: 6.00 Build 0)  -->

<svg
   xmlns:dc="http://purl.org/dc/elements/1.1/"
   xmlns:cc="http://creativecommons.org/ns#"
   xmlns:rdf="http://www.w3.org/1999/02/22-rdf-syntax-ns#"
   xmlns:svg="http://www.w3.org/2000/svg"
   xmlns="http://www.w3.org/2000/svg"
   xmlns:sodipodi="http://sodipodi.sourceforge.net/DTD/sodipodi-0.dtd"
   xmlns:inkscape="http://www.inkscape.org/namespaces/inkscape"
   version="1.1"
   x="0px"
   y="0px"
   viewBox="0 0 1100 500.00002"
   xml:space="preserve"
   id="svg3887"
   sodipodi:docname="Logo-cerberusWithTextHorizontal_White.svg"
   inkscape:version="0.92.4 (5da689c313, 2019-01-14)"
   width="1100"
   height="500"><metadata
   id="metadata3893"><rdf:RDF><cc:Work
       rdf:about=""><dc:format>image/svg+xml</dc:format><dc:type
         rdf:resource="http://purl.org/dc/dcmitype/StillImage" /><dc:title></dc:title></cc:Work></rdf:RDF></metadata><defs
   id="defs3891">
	
	

	
	

	
	
</defs><sodipodi:namedview
   pagecolor="#000075"
   bordercolor="#666666"
   borderopacity="1"
   objecttolerance="10"
   gridtolerance="10"
   guidetolerance="10"
   inkscape:pageopacity="0"
   inkscape:pageshadow="2"
   inkscape:window-width="1920"
   inkscape:window-height="1015"
   id="namedview3889"
   showgrid="false"
   inkscape:pagecheckerboard="false"
   inkscape:zoom="0.92312104"
   inkscape:cx="428.17898"
   inkscape:cy="347.28372"
   inkscape:window-x="0"
   inkscape:window-y="0"
   inkscape:window-maximized="1"
   inkscape:current-layer="svg3887" />
<style
   type="text/css"
   id="style3854">
	.st0{display:none;}
	.st1{display:inline;fill:#312F38;}
	.st2{fill:#008DFF;}
	.st3{display:none;fill:#306263;}
	.st4{font-family:'BlueHighway-Bold';}
	.st5{font-size:502.3352px;}
	.st6{fill:#262626;}
	.st7{display:none;fill:#347F89;}
	.st8{display:none;fill:#31B0D5;}
</style>
<g
   id="fond_site"
   class="st0"
   style="display:none"
   transform="translate(0,-223.09996)">
	<rect
   x="8.6999998"
   y="-225.3"
   class="st1"
   width="1332.1"
   height="1152.1"
   id="rect3856"
   style="display:inline;fill:#312f38" />
</g>




<path
   inkscape:connector-curvature="0"
   style="display:none;fill:#ffffff"
   id="path3872"
   d="m 580.7,-39.899976 c -1.7,-1 -3.2,-0.4 -7.5,-1.5 -3,-0.8 -5.6,-1.5 -5.6,-1.5 -20.3,-1.2 -50,-29.2 -50,-29.2 -27,-33.900004 -48.1,-43.200004 -56.7,-44.300004 -8.6,-1.1 -10.2,-8.89998 -10.2,-8.89998 1.4,-11 2.1,-26.6 -1.6,-44.7 -2.2,-11.1 -5.6,-20.5 -8.9,-28 -10.7,4.4 -27,12.7 -42.5,28 -16.2,15.9 -23.7,31.8 -32.3,50.49998 -7.8,16.9 -17.6,42.400004 -23.4,75.500004 l -0.4,-1 c -1.3,-1.3 -4.2,-11.8 -4.4,-17.9 -0.2,-6 -4.3,-8.6 -4.3,-8.6 -86.7,62.3 -82.5,118.899996 -82.5,118.899996 46.6,-20.2 71.8,-21.3 83.8,-22.1 11.2,-0.8 37,0.7 53.1,4.3 15.9,3.6 26.4,6.2 34.4,8.3 39.5,10.7 93,25.2 127.2,0.9 11.6,-8.3 18.8,-19.4 21.5,-23.8 11.8,-18.699996 13.9,-36.999996 14.3,-46.199996 -0.6,-5.5 -2.4,-7.8 -4,-8.7 z m -83.7,-11.4 c -0.3,0.9 -1.5,4.5 -4.7,8.1 -4.3,4.8 -9.6,6.5 -12,7.1 -4.7,-1.2 -11.1,-3.3 -17.6,-7.8 -13.9,-9.4 -19.6,-22.8 -21.5,-28.3 4.9,-2 12.6,-4.5 22.1,-4.6 4.3,0 9.9,-0.1 16.3,2.3 9.7,3.6 15.6,10.5 18.3,14.4 0.2,1.9 0.2,5.1 -0.9,8.8 z"
   class="st7" />
<path
   inkscape:connector-curvature="0"
   style="display:none;fill:#ffffff"
   id="path3877"
   d="m 525.2,2.70002 c -2,-1.1 -3.7,-0.5 -9,-1.8 -3.5,-0.9 -6.7,-1.799996 -6.7,-1.799996 -24.1,-1.4 -59.4,-34.7 -59.4,-34.7 -32,-40.2 -57.1,-51.4 -67.3,-52.6 -10.2,-1.2 -12.1,-10.6 -12.1,-10.6 1.7,-13.100004 2.5,-31.599984 -1.9,-53.099984 -2.7,-13.2 -6.6,-24.4 -10.5,-33.3 -12.8,5.3 -32.1,15.1 -50.5,33.2 -19.2,18.9 -28.1,37.79998 -38.4,59.999984 -9.3,20.1 -21,50.4 -27.8,89.7 l -0.5,-1.2 c -1.5,-1.5 -5,-14.1 -5.3,-21.2 -0.3,-7.2 -5.1,-10.2 -5.1,-10.2 -103,73.999996 -98,141.299996 -98,141.299996 55.3,-24 85.3,-25.3 99.5,-26.3 13.3,-0.9 43.9,0.8 63.1,5.1 18.9,4.3 31.3,7.3 40.8,9.9 46.9,12.7 110.4,29.9 151.1,1.1 13.8,-9.8 22.3,-23 25.6,-28.2 14,-22.2 16.5,-43.9 17,-54.9 -0.5,-6.6 -2.6,-9.3 -4.6,-10.4 z m -99.4,-13.499996 c -0.3,1.1 -1.8,5.4 -5.6,9.6 C 415,4.50002 408.8,6.50002 406,7.20002 c -5.6,-1.4 -13.1,-4 -20.9,-9.199996 -16.6,-11.2 -23.2,-27.1 -25.5,-33.6 5.8,-2.4 14.9,-5.3 26.2,-5.4 5.2,-0.1 11.7,-0.1 19.4,2.8 11.6,4.3 18.5,12.5 21.8,17.1 0.1,2 0.2,5.9 -1.2,10.3 z"
   class="st8" />
<g
   id="g46"
   transform="matrix(0.48669775,0,0,0.48669775,3.4274933,95.180987)"
   inkscape:export-xdpi="66"
   inkscape:export-ydpi="66"><g
     transform="translate(82.727581,-58.215676)"
     inkscape:export-ydpi="66.119057"
     inkscape:export-xdpi="66.119057"
     style="fill:#ffffff"
     id="queue">
	<path
   inkscape:connector-curvature="0"
   style="fill:#ffffff"
   id="path3859"
   d="m 238.9,552.7 c 29.9,1.8 65.4,1.9 105,-2.4 42.9,-4.6 80.2,-13 110.6,-22 0,0 97.6,-36.6 169.4,5.1 12,9.5 25.4,21.9 38.5,37.9 26.8,33 39.8,66.4 46.4,89 -6.5,-7.9 -17.6,-18.9 -34.2,-26.9 -37.1,-17.8 -73.2,-6.3 -82.1,-3.2 -12.7,3.6 -25.8,7.7 -39.4,12.3 -9.8,3.3 -25.9,9.7 -42.2,15.7 -2.1,0.8 -7.1,2.6 -13.8,4.9 -2.6,0.9 -6.5,2.3 -11.2,3.7 0,0 -32.4,9.5 -68.4,7.3 -31.9,-1.8 -109.8,-37.7 -178.6,-121.4 z"
   class="st2" />
	<text
   style="font-size:502.33520508px;font-family:BlueHighway-Bold;display:none;fill:#ffffff"
   class="st3 st4 st5"
   transform="matrix(1.0144,0,0,1,689.1129,540.9739)"
   id="_x33_47F89">CERBERUS</text>







</g><g
     transform="translate(82.727581,-58.215676)"
     inkscape:export-ydpi="66.119057"
     inkscape:export-xdpi="66.119057"
     style="fill:#ffffff"
     id="corps_part_2">
	<path
   inkscape:connector-curvature="0"
   style="fill:#ffffff"
   id="path3863"
   d="m 146,668.1 c 21.3,13.3 58.3,32.5 108,40.4 62.1,9.8 112.1,-3.3 137.4,-11.8 -30.3,-10.8 -82.5,-33.8 -132.3,-82 -55.3,-53.5 -80.4,-111.3 -91.4,-142.5 -4.6,11.1 -9,23.1 -12.7,35.9 -18.3,62.2 -15.6,118.9 -9,160 z"
   class="st6" />
</g><g
     transform="translate(82.727581,-58.215676)"
     inkscape:export-ydpi="66.119057"
     inkscape:export-xdpi="66.119057"
     style="fill:#ffffff"
     id="corps_part_1">
	<path
   inkscape:connector-curvature="0"
   style="fill:#ffffff"
   id="path3866"
   d="m 17.5,412.3 c -4.4,1 87,-62.2 181,-25 0,0 -104.6,59.5 -80.3,262.1 0.1,0.2 -5.4,-1.7 -13.9,-6.4 C 70.2,624.4 -12.1,561.9 17.5,412.3 Z"
   class="st6" />
</g><path
     inkscape:connector-curvature="0"
     inkscape:export-ydpi="66.119057"
     inkscape:export-xdpi="66.119057"
     id="path3874"
     d="m 505.72754,-46.215676 c -12,4.6 -45.90039,19.600391 -69.40039,56.900391 -29.4,46.699999 -20.89922,94.599225 -18.69922,105.199225 -0.3,-1.4 -3.20078,-10.6 -5.80078,-19.000005 -2.3,-7.5 -4.5,-14.298831 -4.5,-14.298831 -82.6,59.200006 -78.59961,113.199226 -78.59961,113.199226 14.52357,-6.31317 26.83728,-10.64338 37.2793,-13.67383 -5.08192,-7.40317 -7.87304,-14.22261 -9.29102,-18.13476 6.604,-2.6405 16.86393,-5.97657 29.65039,-5.97657 5.76095,0 13.20815,0.001 21.7793,3.0586 9.37102,3.38854 16.05489,9.0587 20.44141,13.89453 10.35455,0.61122 21.86839,1.86098 30.54101,3.83203 15.1,3.4 25.19883,5.90039 32.79883,7.90039 37.7,10.2 88.60117,24.00039 121.20117,0.90039 11.1,-7.9 17.9,-18.50117 20.5,-22.70117 11.2,-17.8 13.29922,-35.3 13.69922,-44 -0.4,-5.4 -2.09961,-7.50039 -3.59961,-8.40039 -1.6,-0.9 -2.99922,-0.39844 -7.19922,-1.39844 -2.8,-0.7 -5.40039,-1.40039 -5.40039,-1.40039 -19.3,-1.2 -47.70117,-27.800786 -47.70117,-27.800786 -25.7,-32.3 -45.8,-41.199219 -54,-42.199219 -8.2,-1 -9.69922,-8.5 -9.69922,-8.5 1.3,-10.1 2.1,-24.9996097 -1.5,-42.59961 -3,-14.8 -8.1,-26.600781 -12.5,-34.800781 z m 26.09961,123.5 c 4.1,0 9.4,-7.8e-4 15.5,2.19922 9.3,3.4 14.9,10.001171 17.5,13.701171 0.1,1.8 0.19961,4.90039 -0.90039,8.400395 -0.3,0.9 -1.4,4.29922 -4.5,7.69922 -4.1,4.6 -9.09844,6.19922 -11.39844,6.69922 -4.5,-1.1 -10.50078,-3.19844 -16.80078,-7.39844 -13.3,-9.000005 -18.6,-21.700005 -20.5,-27.000006 4.7,-1.9 11.99961,-4.30078 21.09961,-4.30078 z m -68.0918,33.908206 c 4.78141,0 10.96238,6.1e-4 18.07617,2.60938 10.8456,4.03182 17.37609,11.85661 20.40821,16.24414 0.11659,2.13446 0.23398,5.81254 -1.04883,9.96289 -0.34988,1.06725 -1.63284,5.09716 -5.24805,9.12891 -4.7814,5.45472 -10.61267,7.35432 -13.29492,7.94726 -5.24785,-1.30443 -12.24669,-3.79498 -19.59375,-8.77539 -15.51037,-10.67231 -21.69048,-25.73278 -23.90625,-32.01758 5.48112,-2.25305 13.99505,-5.09961 24.60742,-5.09961 z"
     style="fill:#666666" /><path
     inkscape:connector-curvature="0"
     inkscape:export-ydpi="66.119057"
     inkscape:export-xdpi="66.119057"
     id="path3879"
     d="m 433.32715,-32.215676 c -14,5.4 -53.50039,22.900781 -80.90039,66.300781 -34.3,54.5 -24.29883,110.200005 -21.79883,122.500005 -0.4,-1.7 -3.70117,-12.40156 -6.70117,-22.10156 -2.7,-8.7 -5.19922,-16.59961 -5.19922,-16.59961 -96.3,69.2 -91.59961,132.09961 -91.59961,132.09961 51.7,-22.4 79.8,-23.69961 93,-24.59961 12.4,-0.8 41.1,0.70078 59,4.80078 17.6,4 29.29922,6.79922 38.19922,9.19922 43.9,11.9 103.30078,28 141.30078,1 12.9,-9.2 20.90039,-21.50039 23.90039,-26.40039 13.1,-20.7 15.39844,-41.09883 15.89844,-51.29883 -0.5,-6.3 -2.39883,-8.80078 -4.29883,-9.80078 -1.8,-1.1 -3.50039,-0.39922 -8.40039,-1.69922 -3.3,-0.8 -6.19922,-1.70117 -6.19922,-1.70117 -22.5,-1.3 -55.5,-32.39844 -55.5,-32.39844 -29.9,-37.600006 -53.4,-48.001176 -63,-49.201176 -9.5,-1.2 -11.40039,-9.90039 -11.40039,-9.90039 1.5,-11.7 2.39883,-29.199611 -1.70117,-49.5996107 -3.5,-17.3000003 -9.49961,-30.9996093 -14.59961,-40.5996093 z m 30.30078,144.199226 c 4.8,0 10.99961,-0.0984 18.09961,2.60156 10.8,4 17.30039,11.69844 20.40039,15.89844 0.3,2 0.39961,5.60117 -0.90039,9.70117 -0.3,1 -1.70078,5 -5.30078,9 -4.8,5.3 -10.59883,7.20039 -13.29883,7.90039 -5.2,-1.3 -12.29961,-3.70156 -19.59961,-8.60156 -15.5,-10.5 -21.70039,-25.29844 -23.90039,-31.39844 5.4,-2.3 13.9,-5.00156 24.5,-5.10156 z m -77.26172,46.01562 c 5.76095,0 13.20815,0.003 21.7793,3.06055 13.06748,4.72518 20.93655,13.89506 24.58984,19.03711 0.14048,2.50154 0.27999,6.80974 -1.26562,11.67383 -0.42156,1.25079 -1.96839,5.97607 -6.32422,10.70117 -5.76094,6.39277 -12.78583,8.61759 -16.01758,9.3125 -6.32295,-1.52875 -14.75521,-4.44826 -23.60742,-10.28516 -18.6879,-12.50765 -26.13499,-30.15587 -28.80469,-37.52148 6.604,-2.6405 16.86393,-5.97852 29.65039,-5.97852 z"
     style="fill:#b3b3b3" /><path
     inkscape:connector-curvature="0"
     inkscape:export-ydpi="66.119057"
     inkscape:export-xdpi="66.119057"
     id="path3882"
     d="m 350.22754,-15.215676 c -16.7,6.5 -64.2,27.4 -97,79.5 0,0 -44.4,70.900396 -26.5,145.400396 0,0.2 0.40078,1.59961 0.30078,1.59961 -0.3,0.1 -5.3,-11.1 -8,-25.5 -1.8,-9.3 -2.2,-17.69922 -2,-24.69922 -34.80004,24.4 -55.30074,50.09922 -67.30074,68.69922 -25,38.6 -41.7008,89.19961 -39.8008,90.09961 0.1,0 0.2008,3.9e-4 0.3008,-0.0996 37,-16.3 66.8996,-22.1 86.0996,-24.5 9,-1.1 16.19997,-1.49961 17.99997,-1.59961 14.9,-1 49.30117,0.89922 70.70117,5.69922 21.2,4.8 35.19883,8.19961 45.79883,11.09961 52.7,14.3 123.9,33.60078 169.5,1.30078 15.5,-11 25.00117,-25.79922 28.70117,-31.69922 15.7,-24.9 18.49961,-49.30156 19.09961,-61.60156 -0.6,-7.5 -2.89961,-10.39922 -5.09961,-11.69922 -2.2,-1.3 -4.2,-0.5 -10,-2 -4,-1 -7.5,-2 -7.5,-2 -27,-1.6 -66.60156,-38.90039 -66.60156,-38.90039 -35.9,-45.1 -64.1,-57.6 -75.5,-59 -11.4,-1.4 -13.59961,-11.900395 -13.59961,-11.900395 1.8,-14.100001 2.90039,-35.000001 -2.09961,-59.500002 -4.2,-20.8 -11.4,-37.1992187 -17.5,-48.699219 z m 38.34961,172.773446 c 5.41816,-0.0232 12.01367,0.32695 19.45117,3.12695 9.77856,3.61054 16.61181,9.70764 20.93164,14.67969 1.55789,1.75192 2.81632,3.38252 3.77539,4.73242 0.14048,2.50154 0.27999,6.80974 -1.26562,11.67383 -0.42156,1.25079 -1.96644,5.97607 -6.32227,10.70117 -5.76094,6.39277 -12.78778,8.61759 -16.01953,9.3125 -1.29575,-0.30851 -2.69958,-0.69889 -4.1582,-1.14648 -5.65794,-1.71951 -12.41125,-4.49803 -19.44922,-9.13868 -18.6879,-12.50765 -26.13499,-30.15587 -28.80469,-37.52148 0.0884,-0.0353 0.19349,-0.0738 0.2832,-0.10938 -0.0199,-0.0535 -0.0529,-0.13115 -0.0723,-0.18359 6.5,-2.7 16.70039,-5.89961 29.40039,-6.09961 0.725,-0.0125 1.47598,-0.024 2.25,-0.0273 z"
     style="fill:#ffffff" /><path
     inkscape:export-ydpi="66.119057"
     inkscape:export-xdpi="66.119057"
     class="st6"
     d="M 39.627581,62.784324"
     id="path3884"
     style="fill:#ffffff"
     inkscape:connector-curvature="0" /></g>
<path
   style="display:none;fill:#ffffff"
   id="path3872-6"
   d="m 1212.574,77.16216 c -1.7,-1 -3.2,-0.4 -7.5,-1.5 -3,-0.8 -5.6,-1.5 -5.6,-1.5 -20.3,-1.2 -50,-29.2 -50,-29.2 -27,-33.9 -48.1,-43.2 -56.7,-44.3 -8.6,-1.100001 -10.2,-8.900001 -10.2,-8.900001 1.4,-11 2.1,-26.6 -1.6,-44.7 -2.2,-11.1 -5.6,-20.5 -8.9,-28 -10.7,4.4 -27,12.7 -42.5,28 -16.2,15.9 -23.7,31.8 -32.29999,50.5 -7.8,16.900001 -17.6,42.400001 -23.4,75.500001 l -0.4,-1 c -1.3,-1.3 -4.2,-11.8 -4.4,-17.9 -0.2,-6 -4.3,-8.6 -4.3,-8.6 -86.7,62.3 -82.5,118.9 -82.5,118.9 46.6,-20.2 71.8,-21.3 83.8,-22.1 11.2,-0.8 36.99999,0.7 53.09999,4.3 15.9,3.6 26.4,6.2 34.4,8.3 39.5,10.7 93,25.2 127.2,0.9 11.6,-8.3 18.8,-19.4 21.5,-23.8 11.8,-18.7 13.9,-37 14.3,-46.2 -0.6,-5.5 -2.4,-7.8 -4,-8.7 z m -83.7,-11.4 c -0.3,0.9 -1.5,4.5 -4.7,8.1 -4.3,4.8 -9.6,6.5 -12,7.1 -4.7,-1.2 -11.1,-3.3 -17.6,-7.8 -13.9,-9.4 -19.6,-22.8 -21.5,-28.3 4.9,-2 12.6,-4.5 22.1,-4.6 4.3,0 9.9,-0.1 16.3,2.3 9.7,3.6 15.6,10.5 18.3,14.4 0.2,1.9 0.2,5.1 -0.9,8.8 z"
   class="st7"
   inkscape:connector-curvature="0" />


<text
   xml:space="preserve"
   style="font-style:normal;font-variant:normal;font-weight:bold;font-stretch:normal;font-size:192px;line-height:1.25;font-family:sans-serif;-inkscape-font-specification:'sans-serif, Bold';font-variant-ligatures:normal;font-variant-caps:normal;font-variant-numeric:normal;font-feature-settings:normal;text-align:start;letter-spacing:0px;word-spacing:0px;writing-mode:lr-tb;text-anchor:start;fill:#ffffff;fill-opacity:1;stroke:none"
   x="350.05392"
   y="205.96165"
   id="text29"
   inkscape:export-xdpi="66"
   inkscape:export-ydpi="66"><tspan
     sodipodi:role="line"
     x="350.05392"
     y="205.96165"
     style="font-style:normal;font-variant:normal;font-weight:bold;font-stretch:normal;font-size:160px;font-family:sans-serif;-inkscape-font-specification:'sans-serif, Bold';font-variant-ligatures:normal;font-variant-caps:normal;font-variant-numeric:normal;font-feature-settings:normal;text-align:start;writing-mode:lr-tb;text-anchor:start;fill:#ffffff"
     id="tspan26">Cerberus</tspan></text>
<text
   xml:space="preserve"
   style="font-style:normal;font-variant:normal;font-weight:bold;font-stretch:normal;font-size:192px;line-height:1.25;font-family:sans-serif;-inkscape-font-specification:'sans-serif, Bold';font-variant-ligatures:normal;font-variant-caps:normal;font-variant-numeric:normal;font-feature-settings:normal;text-align:start;letter-spacing:0px;word-spacing:0px;writing-mode:lr-tb;text-anchor:start;fill:#ffffff;fill-opacity:1;stroke:none"
   x="427.44519"
   y="363.29587"
   id="text29-0"
   inkscape:export-xdpi="66"
   inkscape:export-ydpi="66"><tspan
     sodipodi:role="line"
     x="427.44519"
     y="363.29587"
     style="font-style:normal;font-variant:normal;font-weight:bold;font-stretch:normal;font-size:160px;font-family:sans-serif;-inkscape-font-specification:'sans-serif, Bold';font-variant-ligatures:normal;font-variant-caps:normal;font-variant-numeric:normal;font-feature-settings:normal;text-align:start;writing-mode:lr-tb;text-anchor:start;fill:#ffffff"
     id="tspan26-8">Testing</tspan></text>


</svg>