<svg xmlns="http://www.w3.org/2000/svg" fill="none" viewBox="0 0 24 24" id="Selenium--Streamline-Svg-Logos" height="24" width="24">
  <desc>
    Selenium Streamline Icon: https://streamlinehq.com
  </desc>
  <path fill="#2cb134" d="M21.299025 0.2503c0.0574 -0.003625 0.11185 0.02572 0.140375 0.07565 0.028525 0.0499275 0.026175 0.11174 -0.0061 0.159345L15.6256 8.374375c-0.04255 0.04805 -0.103675 0.07555 -0.16785 0.07555s-0.1253 -0.0275 -0.16785 -0.07555l-2.0478 -2.2828c-0.050025 -0.051925 -0.1209 -0.078325 -0.1927 -0.0718 -0.0718 0.006525 -0.13675 0.0453 -0.176575 0.105375l-1.242125 1.577825c-0.0393 0.08885 -0.026375 0.192125 0.033575 0.26855l3.69275 3.82705c0.042575 0.04805 0.103675 0.07555 0.167875 0.07555 0.064175 0 0.125275 -0.0275 0.16785 -0.07555l7.251225 -8.15765c0.042825 -0.046 0.109175 -0.061625 0.168025 -0.039575 0.05885 0.022075 0.09855 0.077475 0.10055 0.1403v19.8402c0.002775 0.045325 -0.014 0.08965 -0.0461 0.12175 -0.032125 0.0321 -0.07645 0.048875 -0.12175 0.0461H0.95526c-0.0453125 0.002775 -0.08964 -0.014 -0.12174 -0.0461 -0.0321 -0.0321 -0.0488925 -0.076425 -0.0461125 -0.12175V0.418155c-0.00278 -0.0453125 0.0140125 -0.08964 0.0461125 -0.12174 0.0321 -0.0321025 0.0764275 -0.048892 0.12174 -0.046115H21.299025Zm-5.707 13.39465c-0.999425 -0.017575 -1.962625 0.37405 -2.666275 1.084025 -0.70365 0.709975 -1.0866 1.67665 -1.06005 2.6759 0 2.31635 1.678525 3.793475 3.860625 3.793475 1.0101 0.025125 2.000625 -0.28145 2.819925 -0.87285 0.07595 -0.06895 0.0902 -0.183025 0.03355 -0.26855l-0.60425 -0.906425c-0.06795 -0.0779 -0.18355 -0.09235 -0.268575 -0.03355 -0.525225 0.358675 -1.143375 0.55695 -1.77925 0.5707 -1.17495 0 -1.9135 -0.738575 -2.0478 -1.6114 0.00245 -0.036025 0.031125 -0.0647 0.06715 -0.06715h5.06915c0.108075 -0.0073 0.194125 -0.09335 0.201425 -0.201425v-0.2014c0 -2.34995 -1.4771 -3.96135 -3.625625 -3.96135Zm-5.002 -1.275675c-1.01965 -0.83345 -2.30985 -1.263525 -3.625625 -1.208525 -2.2828 0 -3.692775 1.3428 -3.692775 2.9542 0 3.6592 5.572725 2.484225 5.572725 4.196325 0 0.537125 -0.537125 1.07425 -1.678525 1.07425 -1.08405 0.00895 -2.129925 -0.399775 -2.92065 -1.1414 -0.0472 -0.044125 -0.11115 -0.06575 -0.175475 -0.059325 -0.0643 0.006425 -0.1227 0.0403 -0.160225 0.0929l-0.87285 1.20855c-0.056625 0.085525 -0.042375 0.1996 0.033575 0.26855 0.9064 0.839275 2.1821 1.409975 3.961325 1.409975 2.618525 0 3.8942 -1.342825 3.961325 -3.0885 0 -3.625625 -5.5727 -2.584925 -5.5727 -4.129175 0 -0.5707 0.50355 -0.97355 1.3764 -0.97355 0.96215 -0.013175 1.899225 0.307075 2.652075 0.9064 0.04425 0.036275 0.10125 0.05315 0.158125 0.046825 0.056875 -0.006325 0.108775 -0.0353 0.144 -0.0804l0.872825 -1.17495c0.036275 -0.044275 0.05315 -0.101275 0.046825 -0.15815 -0.006325 -0.05685 -0.0353 -0.108775 -0.080375 -0.144Zm5.035575 2.7528c0.9131 -0.051075 1.701325 0.63305 1.77925 1.54425 -0.00245 0.036 -0.031125 0.0647 -0.06715 0.067125H13.9135c-0.036025 -0.002425 -0.0647 -0.031125 -0.06715 -0.067125 0.11225 -0.8933 0.87905 -1.558825 1.77925 -1.54425Z" stroke-width="0.25"></path>
</svg>